<svg xmlns="http://www.w3.org/2000/svg" xmlns:xlink="http://www.w3.org/1999/xlink" fill="none">

<symbol viewBox="0 0 164 42" id="logo"><path fill="currentColor" fill-rule="evenodd" d="M114.077 41v-9.045l3.231-3.575L124.792 41h9.154l-10.608-17.657L134 11.428h-9.962l-9.961 10.67V0H106v41h8.077ZM24.5 21.77 17.508 41H10.35L0 11h8.534l5.836 17.418L20.92 11h7.158l6.496 17.418L40.411 11H49L38.594 41h-7.157L24.5 21.77Zm49.568 18.218C71.662 41.329 68.981 42 66.028 42c-2.955 0-5.644-.67-8.069-2.012-2.425-1.342-4.358-3.182-5.798-5.52C50.72 32.127 50 29.473 50 26.5c0-3.01.72-5.674 2.16-7.995 1.441-2.32 3.374-4.151 5.799-5.493C60.384 11.671 63.073 11 66.027 11c2.954 0 5.635.67 8.041 2.012a15.641 15.641 0 0 1 5.771 5.493C81.28 20.825 82 23.491 82 26.5c0 2.973-.72 5.629-2.16 7.968a15.57 15.57 0 0 1-5.772 5.52ZM65.528 34c-2.219 0-4.028-.747-5.428-2.24C58.7 30.267 58 28.347 58 26c0-2.311.7-4.222 2.1-5.733C61.5 18.756 63.31 18 65.527 18c2.219 0 4.019.756 5.4 2.267C72.31 21.777 73 23.689 73 26c0 2.347-.69 4.267-2.073 5.76-1.382 1.493-3.181 2.24-5.4 2.24Zm28.44-8.978V41H86V11.326h7.438v4.457c.743-1.848 1.797-3.107 3.16-3.778C97.962 11.335 99.53 11 101.3 11h1.7v7.065h-2.497c-1.948 0-3.524.607-4.728 1.82-1.204 1.215-1.806 2.927-1.806 5.137ZM142 1v6h-3V1h3Zm0 11h-3v29h3V12Zm20.596 29.946c-.523.036-.935.054-1.235.054-2.507 0-4.425-.68-5.754-2.042-1.329-1.362-1.993-3.35-1.993-5.964V15.858H148v-3.105h2.133c1.086 0 1.937-.326 2.555-.98.617-.653.926-1.543.926-2.669V6h3.368v6.753h6.513v3.105h-6.513v18.136c0 .799.122 1.58.365 2.342.244.762.721 1.38 1.432 1.852.711.472 1.74.708 3.088.708a13.3 13.3 0 0 0 1.094-.055c.431-.036.777-.072 1.039-.109v2.996c-.412.109-.88.181-1.404.218Z" clip-rule="evenodd"/></symbol>
<symbol viewBox="0 0 20 20" id="fbck"><path fill="currentColor" d="M18.896 0H1.104C.494 0 0 .494 0 1.104v17.792C0 19.506.494 20 1.104 20h9.58v-7.745H8.076V9.237h2.606V7.01c0-2.584 1.578-3.99 3.883-3.99 1.104 0 2.052.082 2.329.119v2.7h-1.598c-1.254 0-1.496.597-1.496 1.47v1.927h2.989l-.39 3.019h-2.6V20h5.098c.608 0 1.102-.494 1.102-1.104V1.104C20 .494 19.506 0 18.896 0Z"/></symbol>
<symbol viewBox="0 0 20 17" id="twtr"><path fill="currentColor" d="M20 2.172a8.192 8.192 0 0 1-2.357.646 4.11 4.11 0 0 0 1.805-2.27 8.22 8.22 0 0 1-2.606.996A4.096 4.096 0 0 0 13.847.248c-2.65 0-4.596 2.472-3.998 5.037A11.648 11.648 0 0 1 1.392 1a4.109 4.109 0 0 0 1.27 5.478 4.086 4.086 0 0 1-1.858-.513c-.045 1.9 1.318 3.679 3.291 4.075a4.114 4.114 0 0 1-1.853.07 4.106 4.106 0 0 0 3.833 2.849A8.25 8.25 0 0 1 0 14.658 11.616 11.616 0 0 0 6.29 16.5c7.618 0 11.922-6.434 11.663-12.205A8.353 8.353 0 0 0 20 2.172Z"/></symbol>
<symbol viewBox="0 0 20 20" id="igrm"><path fill="currentColor" fill-rule="evenodd" d="M10 0C7.284 0 6.944.012 5.878.06 2.246.227.228 2.242.06 5.877.01 6.944 0 7.284 0 10s.012 3.056.06 4.123c.167 3.632 2.182 5.65 5.817 5.817 1.067.048 1.407.06 4.123.06s3.057-.012 4.123-.06c3.629-.167 5.652-2.182 5.816-5.817.05-1.066.061-1.407.061-4.123s-.012-3.056-.06-4.123C19.777 2.25 17.76.227 14.124.061 13.057.01 12.716 0 10 0Zm0 1.802c2.67 0 2.987.01 4.042.059 2.71.123 3.975 1.409 4.099 4.099.048 1.054.057 1.37.057 4.04 0 2.671-.01 2.987-.057 4.041-.124 2.688-1.387 3.976-4.1 4.1-1.054.048-1.37.058-4.041.058-2.67 0-2.987-.01-4.04-.058-2.717-.124-3.977-1.416-4.1-4.1-.048-1.055-.058-1.37-.058-4.041 0-2.67.01-2.986.058-4.041.124-2.69 1.387-3.976 4.1-4.1 1.054-.047 1.37-.057 4.04-.057ZM4.865 10a5.135 5.135 0 1 1 10.27 0 5.135 5.135 0 0 1-10.27 0ZM10 13.333a3.333 3.333 0 1 1 0-6.666 3.333 3.333 0 0 1 0 6.666Zm4.137-8.67a1.2 1.2 0 1 1 2.401 0 1.2 1.2 0 0 1-2.4 0Z" clip-rule="evenodd"/></symbol>
<symbol viewBox="0 0 221 212" id="spring"><path stroke="#44FFA1" d="M124.904 116.341c10.814-15.445 23.745-27.199 35.887-33.728 12.17-6.544 23.401-7.771 30.967-2.473 7.567 5.299 10.255 16.271 8.268 29.946-1.983 13.643-8.605 29.813-19.42 45.258-10.814 15.445-23.744 27.199-35.886 33.728-12.171 6.544-23.401 7.771-30.968 2.473-7.567-5.299-10.255-16.271-8.268-29.946 1.983-13.643 8.606-29.814 19.42-45.258Z"/><path stroke="#44FFA1" d="M103.606 101.428c10.815-15.445 23.745-27.199 35.887-33.728 12.17-6.544 23.401-7.771 30.967-2.473 7.567 5.298 10.255 16.271 8.268 29.946-1.982 13.643-8.605 29.813-19.42 45.258-10.814 15.445-23.744 27.199-35.886 33.728-12.171 6.544-23.401 7.771-30.968 2.473-7.567-5.299-10.255-16.271-8.267-29.946 1.982-13.643 8.605-29.813 19.419-45.258Z"/><path stroke="#44FFA1" d="M83.127 87.088c10.815-15.445 23.701-27.232 35.77-33.813 12.099-6.597 23.224-7.891 30.675-2.674 7.451 5.217 10.04 16.114 7.978 29.74-2.056 13.592-8.725 29.732-19.54 45.177-10.815 15.446-23.7 27.232-35.769 33.813-12.1 6.598-23.225 7.892-30.675 2.675-7.45-5.217-10.04-16.114-7.979-29.741 2.056-13.592 8.725-29.731 19.54-45.177Z" opacity=".75"/><path stroke="#44FFA1" d="M61.01 71.602c10.815-15.445 23.745-27.199 35.887-33.728 12.171-6.544 23.401-7.771 30.968-2.473 7.566 5.298 10.254 16.271 8.267 29.946-1.982 13.643-8.605 29.813-19.419 45.258-10.815 15.445-23.745 27.199-35.887 33.728-12.17 6.544-23.401 7.771-30.968 2.473-7.567-5.299-10.255-16.271-8.267-29.946 1.982-13.643 8.605-29.814 19.42-45.258Z" opacity=".5"/><path stroke="#44FFA1" d="M39.712 56.689c10.815-15.446 23.7-27.232 35.77-33.813 12.1-6.598 23.224-7.892 30.675-2.675 7.451 5.217 10.04 16.114 7.978 29.74-2.056 13.592-8.725 29.732-19.54 45.177-10.815 15.446-23.7 27.233-35.769 33.814-12.1 6.597-23.225 7.891-30.675 2.674-7.451-5.217-10.04-16.114-7.979-29.74 2.056-13.592 8.725-29.732 19.54-45.177Z" opacity=".25"/></symbol>
<symbol></symbol>

</svg>