<svg xmlns="http://www.w3.org/2000/svg" fill="none" viewBox="0 0 221 212"><path stroke="#44FFA1" d="M124.904 116.341c10.814-15.445 23.745-27.199 35.887-33.728 12.17-6.544 23.401-7.771 30.967-2.473 7.567 5.299 10.255 16.271 8.268 29.946-1.983 13.643-8.605 29.813-19.42 45.258-10.814 15.445-23.744 27.199-35.886 33.728-12.171 6.544-23.401 7.771-30.968 2.473-7.567-5.299-10.255-16.271-8.268-29.946 1.983-13.643 8.606-29.814 19.42-45.258Z"/><path stroke="#44FFA1" d="M103.606 101.428c10.815-15.445 23.745-27.199 35.887-33.728 12.17-6.544 23.401-7.771 30.967-2.473 7.567 5.298 10.255 16.271 8.268 29.946-1.982 13.643-8.605 29.813-19.42 45.258-10.814 15.445-23.744 27.199-35.886 33.728-12.171 6.544-23.401 7.771-30.968 2.473-7.567-5.299-10.255-16.271-8.267-29.946 1.982-13.643 8.605-29.813 19.419-45.258Z"/><path stroke="#44FFA1" d="M83.127 87.088c10.815-15.445 23.701-27.232 35.77-33.813 12.099-6.597 23.224-7.891 30.675-2.674 7.451 5.217 10.04 16.114 7.978 29.74-2.056 13.592-8.725 29.732-19.54 45.177-10.815 15.446-23.7 27.232-35.769 33.813-12.1 6.598-23.225 7.892-30.675 2.675-7.45-5.217-10.04-16.114-7.979-29.741 2.056-13.592 8.725-29.731 19.54-45.177Z" opacity=".75"/><path stroke="#44FFA1" d="M61.01 71.602c10.815-15.445 23.745-27.199 35.887-33.728 12.171-6.544 23.401-7.771 30.968-2.473 7.566 5.298 10.254 16.271 8.267 29.946-1.982 13.643-8.605 29.813-19.419 45.258-10.815 15.445-23.745 27.199-35.887 33.728-12.17 6.544-23.401 7.771-30.968 2.473-7.567-5.299-10.255-16.271-8.267-29.946 1.982-13.643 8.605-29.814 19.42-45.258Z" opacity=".5"/><path stroke="#44FFA1" d="M39.712 56.689c10.815-15.446 23.7-27.232 35.77-33.813 12.1-6.598 23.224-7.892 30.675-2.675 7.451 5.217 10.04 16.114 7.978 29.74-2.056 13.592-8.725 29.732-19.54 45.177-10.815 15.446-23.7 27.233-35.769 33.814-12.1 6.597-23.225 7.891-30.675 2.674-7.451-5.217-10.04-16.114-7.979-29.74 2.056-13.592 8.725-29.732 19.54-45.177Z" opacity=".25"/></svg>